<?xml version="1.0" standalone="no"?>
<!DOCTYPE svg PUBLIC "-//W3C//DTD SVG 20010904//EN"
 "http://www.w3.org/TR/2001/REC-SVG-20010904/DTD/svg10.dtd">
<svg version="1.0" xmlns="http://www.w3.org/2000/svg"
 width="200.000000pt" height="200.000000pt" viewBox="0 0 200.000000 200.000000"
 preserveAspectRatio="xMidYMid meet">

<g transform="translate(0.000000,200.000000) scale(0.100000,-0.100000)"
fill="#000000" stroke="none">
<path d="M1413 1717 c-23 -7 -49 -19 -57 -27 -7 -8 -24 -61 -36 -117 -23 -101
-24 -103 -51 -103 -22 0 -32 7 -45 31 -15 30 -15 32 8 47 30 21 78 72 78 83 0
5 -38 9 -85 9 -69 0 -86 3 -95 18 -10 15 -11 14 -6 -6 3 -16 -10 -48 -40 -99
-25 -42 -42 -78 -39 -81 2 -3 31 5 62 17 90 35 90 35 103 11 11 -20 10 -21 -9
-15 -25 8 -51 -6 -113 -57 l-48 -40 0 -67 c0 -172 85 -277 235 -288 166 -14
263 85 273 278 l4 86 -43 35 c-59 48 -107 71 -136 65 -18 -3 -22 -1 -19 12 3
9 10 39 16 66 18 82 18 82 71 95 37 9 49 16 45 27 -3 8 -6 19 -6 24 0 11 -13
10 -67 -4z m53 -29 c-22 -12 -79 -14 -83 -2 -5 15 80 33 89 20 4 -6 1 -14 -6
-18z m-92 -44 c-15 -86 -38 -164 -50 -164 -18 0 -18 -5 7 96 13 51 26 83 33
81 6 -3 10 -8 10 -13z m-99 -34 c-3 -6 -16 -8 -28 -6 -12 1 -16 1 -9 -1 15 -5
16 -20 1 -28 -5 -4 -20 1 -32 12 -22 18 -22 18 -4 -3 15 -18 14 -34 -3 -34 -3
0 -14 14 -24 31 -11 18 -14 29 -8 25 7 -4 20 -2 29 3 23 14 86 14 78 1z m-126
-46 c1 28 2 29 16 10 19 -26 19 -41 -2 -47 -10 -2 -26 -8 -35 -12 -13 -5 -16
-2 -12 17 3 18 2 17 -7 -4 -10 -25 -29 -39 -29 -20 0 15 37 62 43 55 4 -3 8 2
8 13 1 12 4 7 9 -11 l8 -30 1 29z m312 -122 c60 -42 66 -59 29 -80 -24 -14
-28 -13 -58 18 -37 36 -58 33 -24 -3 31 -33 27 -45 -15 -52 -21 -4 -62 -14
-91 -23 -52 -16 -55 -15 -95 6 -23 12 -48 22 -55 22 -14 0 -8 34 10 57 5 7 5
14 -1 18 -6 3 -16 -5 -23 -19 -13 -30 -16 -31 -43 -10 -19 14 -19 15 10 39 53
45 81 56 110 45 36 -14 94 -12 130 5 45 20 57 18 116 -23z"/>
<path d="M502 1648 c8 -13 54 -91 101 -174 l87 -151 0 -131 0 -131 -40 -3
c-22 -2 -40 -7 -40 -13 0 -6 37 -10 90 -10 53 0 90 4 90 10 0 6 -18 11 -40 13
l-40 3 0 136 0 136 95 164 c52 91 95 166 95 169 0 2 -93 4 -206 4 l-206 0 14
-22z m335 -18 c-14 -11 -37 -20 -50 -20 -14 0 -29 -4 -32 -10 -3 -6 -48 -10
-100 -10 l-94 0 -16 30 -16 30 167 0 167 0 -26 -20z m3 -25 c-7 -9 -15 -13
-17 -11 -7 7 7 26 19 26 6 0 6 -6 -2 -15z m-37 -12 c-7 -2 -19 -2 -25 0 -7 3
-2 5 12 5 14 0 19 -2 13 -5z m-103 -20 c0 -14 -15 -30 -37 -42 -13 -6 -23 -21
-23 -31 0 -11 -3 -20 -8 -20 -7 0 -52 79 -52 93 0 4 27 7 60 7 33 0 60 -3 60
-7z m95 -3 c-3 -5 -14 -10 -25 -10 -10 0 -20 -7 -24 -15 -7 -19 -46 -20 -46
-1 0 15 27 29 40 21 5 -3 11 -1 15 5 3 5 15 10 26 10 11 0 17 -4 14 -10z m-41
-115 l-57 -97 -28 49 c-35 59 -35 63 -5 63 24 0 56 23 56 40 0 4 8 11 18 14 9
3 28 13 42 21 13 8 26 13 28 11 1 -2 -23 -47 -54 -101z m-60 69 c22 -8 20 -21
-5 -35 -28 -14 -48 3 -29 26 14 17 13 17 34 9z"/>
<path d="M380 985 c0 -13 71 -15 618 -13 403 2 617 6 617 13 0 7 -214 11 -617
13 -547 2 -618 0 -618 -13z"/>
<path d="M647 943 c-4 -3 -7 -18 -7 -33 0 -15 -12 -60 -26 -101 -23 -64 -26
-85 -21 -156 5 -80 4 -82 -15 -72 -11 6 -25 8 -32 6 -13 -5 -96 -139 -96 -154
0 -11 243 -153 262 -153 14 0 98 132 98 154 0 8 -7 17 -16 20 -22 8 -12 19 74
83 144 105 337 282 374 341 17 27 18 35 7 48 -18 22 -89 13 -124 -14 -22 -17
-31 -19 -50 -10 -42 19 -71 2 -114 -64 -54 -85 -54 -85 -112 -102 -94 -28
-119 -6 -119 109 0 57 -3 66 -26 84 -27 22 -46 26 -57 14z m43 -33 c11 -6 15
-30 16 -85 1 -64 4 -79 24 -100 51 -55 174 -16 335 107 98 74 148 98 160 78
13 -21 -257 -275 -376 -355 -24 -16 -56 -40 -70 -53 l-26 -23 -54 31 c-30 17
-60 39 -66 48 -21 26 -17 182 7 241 10 28 20 66 22 85 2 38 5 41 28 26z m368
-29 c9 -6 0 -18 -33 -46 -25 -20 -48 -35 -51 -33 -5 6 54 88 64 88 4 0 13 -4
20 -9z"/>
</g>
</svg>
