<?xml version="1.0" standalone="no"?>
<!DOCTYPE svg PUBLIC "-//W3C//DTD SVG 20010904//EN"
 "http://www.w3.org/TR/2001/REC-SVG-20010904/DTD/svg10.dtd">
<svg version="1.0" xmlns="http://www.w3.org/2000/svg"
 width="626.000000pt" height="626.000000pt" viewBox="0 0 626.000000 626.000000"
 preserveAspectRatio="xMidYMid meet">

<g transform="translate(0.000000,626.000000) scale(0.100000,-0.100000)"
fill="#000000" stroke="none">
<path d="M2760 5004 c-106 -22 -205 -78 -285 -158 -38 -39 -78 -81 -87 -93
-10 -13 -29 -23 -42 -23 -27 0 -157 -38 -169 -49 -4 -4 25 -18 65 -32 40 -13
74 -24 76 -25 2 -1 -17 -23 -42 -48 -45 -45 -59 -76 -33 -76 7 0 22 7 33 15
27 20 44 18 44 -6 0 -42 29 -77 74 -89 15 -4 25 -25 40 -90 l21 -84 -32 -32
c-27 -27 -33 -40 -33 -76 0 -53 28 -97 131 -202 l67 -69 89 5 c62 3 103 11
141 28 l53 23 24 -23 c26 -24 33 -54 15 -65 -22 -14 -2 -155 22 -155 6 0 20 7
30 17 17 15 18 14 18 -18 0 -19 7 -87 17 -152 9 -64 14 -119 12 -121 -2 -2
-65 -9 -139 -15 -74 -7 -150 -14 -167 -18 -29 -5 -33 -2 -33 16 0 25 5 25 -79
5 l-69 -15 -37 25 c-28 19 -51 26 -88 26 -46 0 -49 1 -43 23 3 12 13 55 22 95
16 74 24 83 50 57 21 -20 57 -19 77 3 20 22 43 167 33 206 -5 19 -13 26 -31
26 -14 0 -26 7 -30 19 -7 23 -33 31 -63 20 -26 -10 -60 -62 -68 -107 -5 -27
-14 -36 -44 -48 -34 -14 -38 -20 -44 -61 -3 -25 -6 -81 -6 -123 l0 -78 -76 -7
c-42 -4 -107 -16 -145 -26 -77 -21 -209 -78 -209 -89 0 -10 26 -20 52 -20 17
0 19 -4 12 -27 -5 -16 -9 -60 -9 -100 0 -57 4 -77 21 -99 32 -43 112 -94 148
-94 78 -1 69 -39 -17 -70 -168 -60 -423 -229 -540 -359 -20 -22 -54 -52 -77
-66 -68 -43 -178 -153 -191 -192 -6 -19 -9 -60 -7 -89 6 -65 30 -96 91 -113
48 -14 136 -53 137 -62 0 -3 -27 -3 -61 -1 -125 9 -275 -60 -338 -155 -41 -62
-41 -103 0 -137 l30 -26 -36 -31 c-75 -66 -115 -182 -115 -334 0 -174 37 -274
140 -375 110 -109 249 -163 420 -163 147 -1 259 39 357 127 83 75 134 175 145
281 3 29 4 29 53 -37 l50 -66 45 5 c25 3 155 21 290 40 135 19 252 34 260 33
8 0 207 -3 442 -6 l428 -6 6 -37 c24 -126 121 -224 276 -278 100 -35 292 -44
397 -18 157 38 274 155 317 318 18 68 18 227 0 296 -17 62 -55 123 -92 148
l-26 17 119 41 118 41 0 94 c-1 105 -15 145 -81 227 -24 29 -34 52 -34 76 0
52 -37 99 -90 116 -25 8 -54 17 -65 22 -11 4 -78 10 -150 13 -163 8 -175 11
-175 45 0 50 47 54 704 58 411 2 593 7 603 14 21 18 17 70 -7 76 -17 5 -18 8
-7 27 8 15 13 117 15 360 l4 340 24 19 c13 10 24 28 24 39 0 11 9 31 20 45 12
16 20 41 20 64 0 31 -6 43 -30 61 -16 12 -30 27 -30 34 0 7 -11 26 -24 41
l-24 28 -546 3 -546 3 -25 -25 -25 -25 2 -501 c2 -395 0 -500 -9 -500 -10 0
-13 104 -13 485 l0 485 -25 16 c-35 23 -61 11 -69 -34 -3 -20 -6 -243 -6 -494
l0 -457 -26 -20 c-34 -27 -48 -26 -77 3 -30 30 -114 56 -179 56 -26 0 -48 2
-48 5 0 4 7 20 16 37 13 25 15 48 10 112 l-6 81 29 13 c17 7 37 28 46 49 17
35 17 41 0 112 -31 136 -104 341 -164 465 -126 259 -279 442 -459 548 l-43 25
50 7 c34 4 51 11 51 21 0 7 -6 16 -12 18 -38 15 31 4 79 -13 31 -11 60 -17 65
-14 5 3 -3 27 -17 52 -24 43 -25 48 -9 57 26 15 84 66 84 74 0 4 -32 5 -70 3
-42 -3 -82 1 -100 8 l-30 13 38 41 c172 187 161 466 -26 637 -132 121 -351
175 -542 133z m61 -84 c25 -14 24 -50 -1 -83 -37 -47 -172 -75 -200 -42 -48
58 124 166 201 125z m-326 -421 c56 -38 123 -65 186 -74 50 -7 69 4 46 27 -11
11 2 13 77 12 l91 -2 0 -83 0 -83 -70 -30 c-52 -22 -91 -30 -154 -34 -79 -4
-191 11 -191 26 0 4 -6 45 -14 92 -21 127 -28 180 -22 180 3 0 26 -14 51 -31z
m375 -277 c-44 -43 -51 -78 -28 -155 12 -40 12 -40 -27 -74 -50 -44 -146 -93
-181 -93 -39 0 -82 37 -152 130 -71 93 -76 119 -34 169 l27 32 40 -16 c74 -32
263 -18 345 25 53 27 55 24 10 -18z m54 -67 c5 -33 2 -45 -19 -70 -13 -16 -27
-26 -31 -22 -4 3 -9 28 -11 54 -4 39 -1 53 18 77 25 32 33 25 43 -39z m95 -62
c10 -8 -87 -96 -140 -129 -74 -45 -82 -43 -27 6 25 22 60 62 78 90 28 44 35
49 59 44 14 -4 28 -9 30 -11z m28 -89 c2 -5 -21 -34 -51 -63 -53 -52 -54 -53
-66 -32 -10 19 -8 25 17 44 15 12 39 32 53 44 25 23 41 25 47 7z m6 -112 c-2
-7 4 -9 15 -5 16 7 -64 -92 -106 -130 -20 -19 -21 -18 -28 18 -6 34 -3 40 42
86 44 45 83 61 77 31z m-596 -112 c-6 -53 -35 -120 -52 -120 -55 0 -42 143 16
184 21 15 24 15 32 0 5 -9 7 -38 4 -64z m50 -44 c-6 -80 -19 -116 -42 -116
-20 0 -19 9 5 61 11 24 20 63 20 87 0 25 5 42 11 42 9 0 10 -22 6 -74z m-183
-48 c-11 -5 -26 -26 -31 -46 l-10 -37 -2 42 c-1 42 7 51 44 52 19 0 19 -1 -1
-11z m22 -35 c-3 -10 -8 -31 -13 -48 l-7 -30 -7 40 c-8 45 -5 55 17 55 10 0
13 -6 10 -17z m14 -78 c-17 -59 -24 -52 -9 9 6 26 14 44 17 42 2 -3 -1 -26 -8
-51z m-73 -157 c-2 -29 -3 -8 -3 47 0 55 1 79 3 53 2 -26 2 -71 0 -100z m2810
26 c2 -6 -4 -15 -14 -19 -30 -13 -693 -19 -706 -6 -6 6 -7 14 -3 18 4 5 141
11 304 14 377 7 415 7 419 -7z m-934 -486 c-1 -329 -5 -484 -12 -486 -7 -2
-11 145 -13 480 -2 266 -2 486 0 490 1 4 8 5 15 2 9 -3 12 -115 10 -486z
m-1913 436 c0 -27 -8 -43 -35 -68 -19 -19 -35 -42 -35 -52 0 -11 -9 -32 -20
-49 -27 -41 -25 -68 10 -117 17 -22 30 -54 30 -69 0 -15 5 -31 11 -35 16 -9
-1 -21 -43 -28 -31 -6 -38 -4 -38 9 0 19 -57 55 -88 55 -13 0 -34 11 -47 25
-22 21 -25 33 -25 92 1 73 24 221 37 234 7 7 172 35 226 38 13 1 17 -7 17 -35z
m95 6 c18 -19 17 -20 -3 -20 -15 0 -22 6 -22 20 0 11 2 20 3 20 2 0 12 -9 22
-20z m130 -29 c30 -16 49 -31 42 -34 -16 -5 -95 33 -101 50 -7 18 -3 17 59
-16z m-507 -8 c-2 -13 -15 -19 -46 -21 -50 -4 -55 11 -9 26 48 15 59 14 55 -5z
m1410 -19 c70 -5 102 -11 102 -19 0 -29 -149 -34 -257 -8 -63 14 -73 20 -73
38 0 21 1 21 63 9 34 -8 108 -16 165 -20z m-368 11 c0 -9 -6 -17 -12 -20 -29
-8 -298 -13 -298 -4 0 5 19 9 43 10 23 0 87 6 142 13 55 7 106 14 113 15 6 0
12 -6 12 -14z m-562 -36 c44 -22 65 -22 175 -3 l37 7 0 -92 c0 -77 -3 -91 -16
-91 -24 0 -128 31 -138 41 -6 5 -21 9 -35 9 -52 0 -70 11 -73 43 -2 19 -13 37
-30 50 -23 17 -31 18 -56 8 -61 -26 -61 -97 1 -122 l31 -13 -30 -12 c-26 -11
-32 -10 -56 14 -15 14 -35 45 -45 70 -16 42 -16 45 2 56 100 62 158 71 233 35z
m-502 -45 c-3 -26 -6 -79 -6 -118 l-1 -71 -20 25 c-19 22 -21 35 -17 105 5 87
11 105 35 105 13 0 15 -8 9 -46z m1304 1 c32 -9 86 -15 130 -14 70 2 75 1 78
-19 2 -14 -8 -33 -27 -52 -34 -35 -25 -35 -468 -23 l-263 6 0 58 0 59 213 3
c245 4 263 3 337 -18z m1556 -147 c-3 -62 -9 -137 -12 -165 l-7 -53 152 52
c121 42 154 49 164 39 22 -22 14 -168 -12 -225 -32 -69 -95 -133 -165 -168
-50 -25 -72 -30 -131 -31 -138 -1 -246 66 -306 188 -60 122 -38 271 53 364 67
69 153 109 237 110 l34 1 -7 -112z m154 72 c37 -19 76 -57 104 -101 l16 -25
-126 -63 c-70 -34 -129 -59 -132 -56 -7 7 38 206 50 220 4 5 8 20 8 33 0 26
15 25 80 -8z m-2739 -84 c37 -84 39 -96 11 -96 -10 0 -12 7 -8 23 5 22 -2 36
-47 100 -12 17 -16 34 -12 47 9 28 12 24 56 -74z m169 -3 c-46 -79 -92 -131
-111 -126 -15 4 -16 8 -6 24 9 15 8 24 -6 48 -24 42 -22 47 23 43 34 -4 44 0
72 30 41 42 58 32 28 -19z m154 12 c94 -31 146 -33 153 -5 6 22 29 22 302 4
l84 -6 -6 -133 c-7 -150 -2 -165 62 -193 l36 -15 -35 -10 c-211 -57 -617 -218
-698 -277 -77 -56 -86 -117 -51 -355 36 -251 109 -576 136 -607 13 -15 12 -18
-14 -31 -15 -8 -63 -22 -106 -31 -43 -9 -87 -20 -97 -26 -17 -9 -22 -7 -31 17
-34 88 -115 309 -163 450 l-56 161 41 109 c137 363 249 687 249 718 0 20 -5
45 -10 56 -9 15 -6 24 16 47 14 15 40 55 56 90 16 34 36 62 44 62 7 0 47 -11
88 -25z m-254 -179 c0 -2 -20 -46 -43 -97 -60 -128 -152 -359 -227 -569 -35
-96 -66 -179 -71 -184 -4 -4 -65 3 -136 17 -70 15 -180 35 -244 46 -133 24
-174 39 -209 75 -23 25 -23 29 -12 74 42 158 329 423 595 547 114 53 245 94
305 94 23 1 42 -1 42 -3z m30 -49 c0 -12 -36 -121 -80 -242 -45 -121 -110
-302 -146 -402 l-65 -181 16 -61 c30 -118 244 -694 266 -715 15 -16 10 -26
-11 -26 -11 0 -23 8 -27 18 -3 9 -40 103 -80 207 -41 105 -109 279 -150 388
l-75 199 43 116 c39 107 82 213 240 598 51 125 69 151 69 101z m1050 -154 l55
-6 37 -73 c20 -41 33 -76 29 -78 -26 -17 -141 -43 -490 -112 l-394 -79 7 -93
c7 -100 52 -363 93 -535 14 -60 22 -111 18 -115 -5 -5 -151 -39 -176 -42 -8 0
-56 159 -74 250 -31 147 -56 327 -62 431 l-6 105 33 37 c52 60 284 162 600
263 150 48 204 62 235 58 22 -2 65 -7 95 -11z m388 -76 c-4 -72 -8 -89 -34
-127 -50 -74 -176 -119 -330 -120 -131 0 -700 -62 -716 -78 -11 -11 10 -154
42 -292 37 -158 80 -361 80 -377 0 -7 -9 -13 -20 -13 -11 0 -20 2 -20 5 0 2
-18 74 -40 159 -41 161 -99 542 -83 556 8 7 225 51 573 116 107 19 219 44 249
55 97 34 155 85 167 148 6 29 17 33 128 50 5 0 7 -36 4 -82z m-148 48 c0 -25
-28 -72 -51 -89 -21 -14 -23 -13 -49 22 -60 83 -61 82 25 82 61 0 75 -3 75
-15z m1750 -288 c0 -16 -34 -17 -612 -15 -535 3 -613 5 -616 18 -2 13 71 15
613 15 580 0 615 -1 615 -18z m-1260 -1 c0 -2 2 -11 5 -19 5 -11 -11 -15 -79
-20 -85 -6 -142 -26 -153 -53 -3 -9 -20 -14 -50 -14 -45 0 -45 0 -31 23 30 44
75 61 167 62 47 1 95 6 106 13 21 12 35 15 35 8z m-2767 -58 c-31 -60 -43
-162 -23 -197 15 -29 8 -36 -22 -20 -34 18 -47 40 -48 79 0 77 11 104 62 148
27 23 51 42 53 42 2 0 -8 -24 -22 -52z m1582 -48 c77 -12 445 -40 527 -40 68
0 67 -8 -2 -34 -116 -45 -237 -144 -304 -249 -87 -135 -127 -354 -93 -512 8
-38 13 -72 11 -74 -8 -8 -163 -39 -168 -33 -4 3 -6 13 -6 23 0 10 -11 30 -23
46 -13 15 -27 40 -31 56 -3 15 -12 27 -18 27 -7 0 2 15 19 33 l32 32 -14 64
c-13 63 -13 64 16 109 60 95 91 241 69 331 -6 28 -34 88 -62 133 -37 62 -46
83 -36 89 16 11 11 11 83 -1z m-107 -48 c12 -26 38 -76 57 -110 29 -54 35 -74
35 -126 0 -54 -20 -152 -38 -180 -7 -11 -45 143 -71 289 -11 61 -23 125 -27
143 -10 50 17 40 44 -16z m-75 -27 c3 -36 2 -52 -3 -40 -8 19 -14 113 -6 104
2 -2 6 -31 9 -64z m1278 19 c121 -21 261 -65 369 -116 109 -52 218 -156 243
-232 18 -52 22 -132 9 -153 -21 -34 -748 -247 -1201 -353 -118 -27 -217 -47
-222 -44 -4 2 -15 39 -25 81 -22 102 -15 292 15 376 37 106 84 180 161 257
101 101 215 160 375 194 48 10 189 5 276 -10z m-487 -44 c-288 -145 -431 -459
-354 -779 11 -46 19 -85 18 -86 -4 -3 -347 -70 -483 -95 -110 -20 -455 -74
-551 -86 l-51 -6 -34 48 c-18 27 -94 132 -169 234 -75 102 -205 285 -288 407
-124 180 -159 225 -189 240 -40 19 -83 74 -83 104 0 17 4 16 48 -6 30 -16 138
-43 305 -77 l259 -54 62 -169 c88 -239 246 -634 256 -640 17 -11 260 15 431
45 179 32 388 75 393 81 1 2 -4 64 -12 138 -13 119 -13 144 0 227 23 141 68
228 171 329 83 81 152 124 267 165 87 31 89 23 4 -20z m856 0 c14 -25 0 -25
-55 0 l-40 19 42 0 c33 1 45 -4 53 -19z m-2794 -392 c70 -101 147 -212 172
-247 l46 -64 -39 7 c-59 11 -142 45 -173 70 -15 12 -58 31 -97 41 -120 31
-399 124 -422 140 -62 44 19 155 153 210 47 19 77 25 146 25 l87 0 127 -182z
m1224 -212 c0 -20 -30 -48 -30 -28 0 4 -3 17 -6 30 -5 18 -2 22 15 22 15 0 21
-6 21 -24z m-57 -8 c4 -12 4 -24 1 -27 -7 -7 -102 -19 -156 -20 -40 -1 -48 2
-48 17 0 15 15 21 78 34 109 22 119 22 125 -4z m-1101 -100 c15 -5 -78 -173
-110 -198 -19 -16 -34 -19 -56 -14 -17 3 -32 8 -34 9 -2 2 7 20 21 42 21 33
73 145 90 195 6 16 9 16 42 -6 20 -14 41 -26 47 -28z m1086 10 c-6 -18 -56
-41 -74 -34 -29 11 -15 35 24 39 20 2 41 4 45 5 5 1 7 -4 5 -10z m-1436 -29
c26 -17 48 -32 48 -33 0 -1 -7 -24 -16 -49 -20 -59 -15 -72 33 -88 20 -6 44
-18 52 -26 34 -35 59 -43 114 -39 34 2 54 0 51 -6 -3 -5 1 -17 8 -26 32 -37
30 -42 -24 -67 -182 -85 -388 60 -365 257 6 45 31 108 44 108 3 0 28 -14 55
-31z m2803 5 c51 -55 56 -151 10 -194 -53 -50 -87 -53 -685 -56 l-555 -3 205
43 c346 73 751 172 900 220 69 22 98 20 125 -10z m-1305 -4 c0 -10 11 -36 25
-56 40 -59 35 -70 -41 -83 -36 -7 -135 -21 -221 -32 -86 -10 -166 -22 -178
-25 -16 -4 -28 2 -44 22 -26 33 -22 37 64 54 111 22 170 58 170 104 0 15 7 22
28 24 16 2 27 -1 27 -9 0 -18 32 -38 62 -39 17 0 40 12 60 30 39 35 48 37 48
10z m-1337 -26 c13 -5 12 -13 -9 -57 -13 -29 -24 -58 -24 -64 0 -17 -5 -16
-40 2 -33 17 -35 22 -20 59 19 51 56 75 93 60z m1082 -4 c-13 -21 -70 -42
-148 -55 -128 -20 -112 -6 43 38 98 28 113 31 105 17z m1654 -236 c-60 -64
-171 -86 -254 -49 l-40 18 45 8 c50 10 190 40 205 44 6 2 23 4 39 4 l29 1 -24
-26z"/>
<path d="M2490 4435 c-10 -13 -9 -15 9 -15 12 0 32 -5 43 -11 30 -16 50 7 24
27 -26 18 -60 18 -76 -1z"/>
<path d="M2515 4330 c-5 -9 2 -55 12 -73 11 -19 29 15 25 48 -4 33 -23 47 -37
25z"/>
<path d="M2630 4287 c-13 -7 -26 -19 -28 -27 -4 -11 0 -11 21 3 30 19 41 22
32 7 -11 -17 22 -11 36 7 12 15 12 16 -5 10 -11 -4 -22 -3 -25 2 -4 6 -15 6
-31 -2z"/>
<path d="M3025 3860 c-3 -5 -1 -10 4 -10 6 0 11 5 11 10 0 6 -2 10 -4 10 -3 0
-8 -4 -11 -10z"/>
<path d="M4610 2975 c-10 -12 -10 -18 0 -30 7 -8 18 -15 25 -15 7 0 18 7 25
15 10 12 10 18 0 30 -7 8 -18 15 -25 15 -7 0 -18 -7 -25 -15z"/>
<path d="M4871 2812 c-12 -23 4 -52 29 -52 25 0 41 30 29 53 -13 22 -46 22
-58 -1z"/>
<path d="M1825 2521 c-116 -67 -225 -184 -225 -241 0 -46 30 -62 138 -73 157
-16 173 -6 197 134 36 201 7 248 -110 180z m95 -38 c0 -20 -5 -63 -12 -95
l-12 -58 -113 0 c-62 0 -113 4 -113 9 0 15 138 139 177 160 58 31 73 28 73
-16z m-239 -179 c-35 -15 -48 -13 -36 5 3 6 21 11 38 11 l32 -1 -34 -15z"/>
<path d="M3825 1950 c-163 -34 -412 -93 -507 -120 -22 -6 -38 -17 -38 -25 0
-8 4 -15 8 -15 5 0 103 22 218 50 115 27 281 64 369 82 120 25 160 37 160 48
0 8 -7 16 -15 17 -8 1 -96 -16 -195 -37z"/>
<path d="M3830 1821 c-225 -47 -510 -119 -528 -134 -36 -29 21 -23 194 19 104
26 272 63 374 84 134 27 185 41 185 51 0 23 -31 20 -225 -20z"/>
<path d="M3899 1710 c-188 -39 -551 -129 -569 -140 -11 -7 -12 -12 -4 -20 8
-8 62 1 195 34 180 43 354 82 494 108 49 10 70 18 70 28 0 23 -39 21 -186 -10z"/>
<path d="M3972 1489 c-68 -20 -93 -112 -46 -168 84 -100 229 3 168 120 -12 24
-70 63 -86 58 -2 0 -18 -5 -36 -10z m108 -104 c0 -7 -9 -24 -21 -39 -15 -19
-30 -26 -54 -26 -58 0 -92 67 -52 105 7 7 8 6 3 -3 -8 -13 22 -9 69 9 21 8 55
-20 55 -46z"/>
</g>
</svg>
