<?xml version="1.0" standalone="no"?>
<!DOCTYPE svg PUBLIC "-//W3C//DTD SVG 20010904//EN"
 "http://www.w3.org/TR/2001/REC-SVG-20010904/DTD/svg10.dtd">
<svg version="1.0" xmlns="http://www.w3.org/2000/svg"
 width="512.000000pt" height="512.000000pt" viewBox="0 0 512.000000 512.000000"
 preserveAspectRatio="xMidYMid meet">

<g transform="translate(0.000000,512.000000) scale(0.100000,-0.100000)"
fill="#000000" stroke="none">
<path d="M3492 4533 c-242 -81 -285 -99 -294 -119 -6 -13 -50 -165 -98 -337
l-87 -312 -324 -5 c-236 -4 -332 -9 -354 -18 -70 -31 -134 -121 -135 -189 l0
-33 -60 0 c-100 0 -100 -1 -100 -240 0 -187 1 -201 20 -220 20 -20 33 -20 966
-20 l946 0 -6 -37 c-7 -43 -76 -621 -76 -634 0 -5 -88 -9 -196 -9 l-195 0 -62
62 c-177 179 -446 184 -622 12 -88 -85 -115 -167 -64 -195 34 -18 65 -3 93 45
121 206 431 206 552 0 14 -24 31 -44 37 -45 7 0 108 0 226 1 l214 2 -7 -59
c-17 -158 -19 -213 -6 -228 16 -19 64 -19 83 0 19 19 17 6 82 555 30 256 57
480 60 498 6 32 7 32 60 32 42 0 60 5 75 20 19 19 20 33 20 220 0 244 2 240
-116 240 -41 0 -73 4 -70 9 10 16 -21 110 -48 146 -15 19 -46 45 -69 58 -41
21 -50 22 -419 25 -287 2 -378 6 -378 15 1 7 36 138 79 291 l78 280 204 68
c112 37 207 68 211 68 5 0 8 -19 8 -43 l0 -43 -170 -68 c-196 -79 -170 -47
-224 -280 -35 -154 -35 -186 -1 -200 60 -23 77 2 115 169 18 77 37 145 43 151
7 6 82 39 169 73 86 34 163 70 172 80 13 14 16 42 16 144 0 124 0 126 -26 146
-15 12 -29 21 -33 20 -3 0 -133 -43 -289 -96z m408 -920 c16 -16 33 -43 36
-60 l7 -33 -592 0 c-578 0 -591 0 -611 -20 -11 -11 -20 -29 -20 -40 0 -11 9
-29 20 -40 20 -20 33 -20 700 -20 l680 0 0 -120 0 -120 -980 0 -980 0 0 120 0
120 180 0 c167 0 181 1 200 20 11 11 20 29 20 40 0 11 -9 29 -20 40 -17 17
-33 20 -120 20 -97 0 -100 1 -100 23 1 31 23 67 51 83 19 11 169 13 761 14
l738 0 30 -27z"/>
<path d="M1180 3060 c-20 -20 -20 -33 -20 -640 l0 -620 -62 0 -63 0 -130 342
c-71 188 -140 368 -152 399 l-21 57 51 34 c29 19 63 42 77 51 l26 16 44 -100
c47 -110 69 -132 115 -111 44 20 41 48 -27 203 -86 194 -74 191 -263 64 -91
-62 -148 -107 -151 -120 -3 -13 53 -174 149 -425 l154 -405 -31 -3 c-56 -5
-75 -12 -86 -32 -8 -16 2 -157 39 -563 28 -298 53 -557 55 -574 l5 -33 -185 0
c-171 0 -185 -1 -204 -20 -25 -25 -25 -55 0 -80 20 -20 33 -20 2080 -20 2047
0 2060 0 2080 20 25 25 25 55 0 80 -18 18 -33 20 -195 20 -96 0 -175 2 -175 4
0 2 7 23 15 46 10 30 15 83 15 176 0 121 -2 136 -20 154 -20 20 -20 21 -3 53
25 46 24 159 -1 215 -15 33 -17 45 -8 54 18 18 14 63 -6 81 -17 16 -99 17
-970 17 -918 0 -952 1 -952 18 0 40 62 140 130 209 38 39 70 80 70 91 0 26
-34 55 -64 55 -34 0 -127 -82 -175 -154 -87 -131 -116 -293 -58 -330 6 -4 4
-25 -7 -55 -20 -60 -20 -127 0 -188 15 -43 15 -48 0 -65 -22 -25 -23 -284 -1
-338 8 -19 15 -37 15 -39 0 -2 -283 -4 -630 -4 l-629 0 -5 33 c-3 17 -19 183
-36 367 -17 184 -33 359 -36 388 l-6 52 539 0 c510 0 541 1 556 18 22 24 21
65 -1 85 -17 15 -70 17 -559 17 l-541 0 -6 23 c-3 12 -6 39 -6 60 l0 37 668 0
c635 0 670 1 685 18 23 25 21 58 -3 82 -17 17 -33 20 -100 20 -44 0 -80 4 -80
9 0 7 67 169 321 776 43 105 79 197 79 206 0 9 -9 24 -19 33 -19 17 -319 116
-352 116 -29 0 -47 -33 -118 -224 -71 -190 -81 -232 -59 -254 16 -16 73 -15
85 1 6 6 38 87 73 178 l62 167 81 -25 c45 -14 87 -28 94 -32 8 -4 -48 -151
-185 -478 l-197 -473 -332 0 -333 0 0 580 0 580 100 0 100 0 0 -80 c0 -67 3
-83 20 -100 11 -11 29 -20 40 -20 11 0 29 9 40 20 18 18 20 33 20 140 0 168
11 160 -220 160 -167 0 -181 -1 -200 -20z m2568 -1812 c-13 -18 -54 -77 -91
-130 l-67 -96 -196 114 c-107 63 -204 114 -215 114 -39 0 -72 -55 -51 -87 4
-7 82 -56 172 -109 316 -186 299 -178 324 -166 13 6 83 96 156 201 l134 191
90 0 c107 0 149 -17 178 -71 36 -68 12 -156 -53 -191 -28 -15 -57 -18 -181
-18 -135 0 -150 -2 -168 -20 -11 -11 -20 -29 -20 -40 0 -11 9 -29 20 -40 19
-19 33 -20 220 -20 l200 0 0 -90 c0 -104 -13 -140 -63 -170 -31 -19 -56 -20
-855 -20 -908 0 -862 -3 -902 63 -16 26 -20 50 -20 125 l0 92 480 0 c467 0
481 1 500 20 11 11 20 29 20 40 0 11 -9 29 -20 40 -19 19 -33 20 -448 20 -478
0 -476 0 -514 71 -36 68 -12 156 53 191 32 17 73 18 688 18 l653 0 -24 -32z"/>
</g>
</svg>
