<?xml version="1.0" standalone="no"?>
<!DOCTYPE svg PUBLIC "-//W3C//DTD SVG 20010904//EN"
 "http://www.w3.org/TR/2001/REC-SVG-20010904/DTD/svg10.dtd">
<svg version="1.0" xmlns="http://www.w3.org/2000/svg"
 width="200.000000pt" height="200.000000pt" viewBox="0 0 200.000000 200.000000"
 preserveAspectRatio="xMidYMid meet">

<g transform="translate(0.000000,200.000000) scale(0.100000,-0.100000)"
fill="#000000" stroke="none">
<path d="M1072 1708 c6 -18 28 -21 28 -4 0 9 -7 16 -16 16 -9 0 -14 -5 -12
-12z"/>
<path d="M1040 1671 c-74 -23 -130 -79 -130 -130 0 -21 3 -21 174 -21 96 0
177 3 179 8 10 18 -16 73 -48 100 -50 45 -116 61 -175 43z"/>
<path d="M1512 1620 c-56 -34 -78 -120 -47 -180 48 -93 162 -93 210 0 43 83
-19 200 -105 200 -14 0 -40 -9 -58 -20z"/>
<path d="M880 1485 c0 -13 26 -15 208 -13 129 2 207 7 207 13 0 6 -78 11 -207
13 -182 2 -208 0 -208 -13z"/>
<path d="M1022 1434 c-15 -10 -22 -25 -22 -47 0 -26 16 -47 98 -129 110 -110
110 -110 221 -79 l68 19 8 -471 c7 -458 10 -500 39 -519 23 -16 86 -8 106 12
19 19 20 33 20 240 0 140 4 220 10 220 6 0 10 -80 10 -220 0 -207 1 -221 20
-240 25 -25 91 -27 114 -4 23 23 24 35 29 327 l5 267 -74 0 -74 0 0 99 0 99
-29 11 c-53 22 -66 87 -26 126 23 24 30 25 140 25 l115 0 0 -70 0 -70 33 0
c37 0 67 25 67 56 0 24 -113 212 -142 237 -17 14 -41 17 -162 17 -119 0 -156
-4 -234 -25 -51 -14 -101 -25 -110 -25 -8 0 -53 36 -98 80 -45 44 -88 80 -96
80 -7 0 -24 -7 -36 -16z"/>
<path d="M593 1380 c-108 -65 -66 -250 57 -250 63 0 120 64 120 136 0 65 -62
134 -120 134 -14 0 -39 -9 -57 -20z"/>
<path d="M222 1163 c2 -10 13 -19 26 -21 17 -3 22 2 22 17 0 16 -6 21 -26 21
-19 0 -25 -5 -22 -17z"/>
<path d="M1556 1128 c-21 -29 -20 -51 2 -70 39 -34 42 -32 42 31 0 67 -15 80
-44 39z"/>
<path d="M1620 990 l0 -160 80 0 80 0 0 160 0 160 -80 0 -80 0 0 -160z"/>
<path d="M220 1106 c0 -13 -7 -29 -15 -36 -8 -7 -15 -28 -15 -46 0 -34 0 -34
46 -34 l45 0 -3 -47 -3 -48 -42 -3 -43 -3 0 -45 0 -44 55 0 55 0 0 125 c0 112
-2 127 -20 145 -11 11 -20 29 -20 40 0 13 -7 20 -20 20 -14 0 -20 -7 -20 -24z"/>
<path d="M544 1090 c-11 -4 -33 -22 -47 -40 -26 -30 -27 -37 -27 -141 l0 -109
180 0 180 0 0 95 c0 134 -28 189 -100 197 -21 3 -25 -3 -39 -57 l-15 -60 -10
34 c-6 23 -6 42 1 62 11 27 10 29 -15 29 -27 0 -27 0 -24 -67 3 -76 -8 -70
-28 15 -12 53 -18 57 -56 42z"/>
<path d="M327 1004 c-4 -4 -7 -25 -7 -46 0 -29 7 -45 25 -62 29 -27 33 -70 8
-85 -14 -8 -9 -10 26 -11 40 0 43 1 27 13 -14 10 -17 23 -14 45 4 26 1 32 -13
32 -19 0 -49 25 -49 42 0 6 8 1 18 -10 9 -12 31 -22 47 -24 27 -3 30 0 27 22
-2 21 -1 22 8 10 10 -13 11 -12 6 3 -3 10 -6 23 -6 28 0 6 -20 7 -50 3 -46 -6
-50 -5 -50 15 0 19 6 21 49 21 27 0 52 -5 54 -10 3 -6 4 -5 3 2 -3 14 -97 24
-109 12z"/>
<path d="M190 940 l0 -40 40 0 40 0 0 40 0 40 -40 0 -40 0 0 -40z"/>
<path d="M150 768 c0 -2 -11 -113 -25 -248 -14 -135 -25 -246 -25 -247 0 -7
1089 -2 1094 5 2 4 -6 111 -20 237 -13 127 -24 236 -24 243 0 9 -107 12 -500
12 -275 0 -500 -1 -500 -2z"/>
<path d="M230 224 c0 -24 2 -25 48 -22 40 3 47 6 50 26 3 20 0 22 -47 22 -48
0 -51 -2 -51 -26z"/>
<path d="M970 225 c0 -23 3 -25 50 -25 47 0 50 2 50 25 0 23 -3 25 -50 25 -47
0 -50 -2 -50 -25z"/>
</g>
</svg>
