<?xml version="1.0" standalone="no"?>
<!DOCTYPE svg PUBLIC "-//W3C//DTD SVG 20010904//EN"
 "http://www.w3.org/TR/2001/REC-SVG-20010904/DTD/svg10.dtd">
<svg version="1.0" xmlns="http://www.w3.org/2000/svg"
 width="225.000000pt" height="225.000000pt" viewBox="0 0 225.000000 225.000000"
 preserveAspectRatio="xMidYMid meet">

<g transform="translate(0.000000,225.000000) scale(0.100000,-0.100000)"
fill="#000000" stroke="none">
<path d="M1907 1974 c-61 -19 -128 -84 -152 -147 -12 -33 -16 -65 -13 -111 4
-74 12 -74 -82 4 -103 87 -69 80 -407 80 -300 0 -302 0 -328 -23 -20 -16 -28
-35 -32 -68 -5 -41 -2 -50 25 -80 l30 -34 254 -5 253 -5 -207 -163 c-114 -90
-216 -175 -226 -190 -46 -65 -56 -96 -56 -172 1 -142 35 -183 283 -340 99 -63
181 -118 181 -121 0 -3 -53 -28 -117 -54 -179 -73 -208 -90 -223 -125 -14 -34
-8 -93 12 -117 21 -25 75 -44 106 -37 46 12 443 192 464 211 50 45 70 128 48
190 -6 15 -69 87 -141 158 l-130 131 107 93 c74 66 108 90 114 81 4 -7 11 -42
14 -79 4 -37 15 -81 25 -97 34 -56 67 -64 279 -64 175 0 191 2 215 20 38 30
52 80 34 123 -26 60 -45 67 -194 67 -73 0 -133 2 -133 4 0 3 -13 91 -30 196
-38 240 -38 224 1 204 44 -22 130 -29 184 -14 59 16 137 86 160 142 22 52 23
150 3 198 -52 123 -192 186 -321 144z m156 -68 c65 -28 117 -107 117 -179 0
-52 -38 -116 -88 -148 -95 -60 -216 -26 -269 76 -20 38 -20 122 0 160 45 87
154 128 240 91z m-531 -174 c9 -4 68 -51 130 -104 l114 -97 33 -218 c18 -120
36 -230 38 -245 l6 -28 148 0 c121 0 150 -3 163 -16 9 -8 16 -21 16 -28 0 -32
-24 -36 -205 -36 -167 0 -183 2 -199 19 -13 14 -23 58 -35 155 -10 75 -19 138
-22 140 -4 4 -281 -232 -339 -289 l-24 -25 152 -154 c146 -147 152 -155 152
-194 0 -69 -25 -88 -260 -191 -227 -100 -245 -104 -245 -45 0 27 6 31 167 99
91 38 174 76 183 84 9 8 15 25 13 40 -3 27 -22 41 -309 228 -115 74 -129 87
-153 134 -41 83 -31 175 27 238 12 13 122 102 244 198 123 96 225 178 228 182
2 4 -13 24 -33 44 l-37 37 -260 2 -260 3 -3 24 c-7 48 11 51 292 50 144 0 269
-3 278 -7z"/>
<path d="M0 1625 c0 -34 1 -35 40 -35 39 0 40 -1 42 -37 1 -37 1 -37 5 -5 4
26 9 32 29 32 21 0 24 4 24 40 l0 40 -70 0 -70 0 0 -35z"/>
<path d="M220 1621 c0 -39 -1 -40 -37 -43 -21 -2 115 -2 302 0 187 2 346 5
353 7 6 2 12 20 12 40 l0 35 -315 0 -315 0 0 -39z"/>
<path d="M80 1475 l0 -35 70 0 70 0 0 35 0 35 -70 0 -70 0 0 -35z"/>
<path d="M300 1475 l0 -35 400 0 400 0 0 35 0 35 -400 0 -400 0 0 -35z"/>
<path d="M152 1363 l-2 -73 73 -1 c39 -1 210 0 380 1 l307 2 0 -30 c0 -24 -5
-31 -26 -36 -14 -4 -164 -6 -333 -5 -169 2 -312 -1 -319 -5 -7 -4 -12 -20 -12
-37 0 -27 2 -29 40 -29 l40 0 0 -40 0 -40 290 0 290 0 0 75 c0 68 2 75 20 75
18 0 20 7 20 70 l0 70 -275 0 -275 0 0 -35 c0 -34 -1 -35 -40 -35 -39 0 -40 1
-40 35 l0 35 -64 0 -65 0 -4 38 c-2 20 -4 5 -5 -35z m258 -183 l0 -40 -40 0
-40 0 0 40 0 40 40 0 40 0 0 -40z m460 -69 l0 -31 -280 0 -280 0 0 28 0 27
280 4 280 3 0 -31z"/>
<path d="M1090 1405 c0 -24 -2 -24 -87 -28 l-88 -3 93 -2 92 -2 0 30 c0 17 -2
30 -5 30 -3 0 -5 -11 -5 -25z"/>
<path d="M308 1373 c12 -2 32 -2 45 0 12 2 2 4 -23 4 -25 0 -35 -2 -22 -4z"/>
<path d="M647 757 c-134 -161 -250 -303 -256 -315 -6 -11 -11 -39 -11 -61 0
-52 46 -107 96 -117 70 -13 91 5 324 271 l219 250 -25 25 c-21 21 -26 23 -37
10 -8 -8 -107 -122 -221 -252 -215 -246 -227 -256 -270 -225 -34 25 -22 62 46
144 36 43 147 176 247 297 100 120 180 223 178 229 -2 6 -12 16 -24 24 -19 13
-33 -1 -266 -280z"/>
</g>
</svg>
